<?xml version="1.0" encoding="utf-8"?>
<!-- Generator: Adobe Illustrator 22.1.0, SVG Export Plug-In . SVG Version: 6.00 Build 0)  -->
<svg version="1.1" id="레이어_1" xmlns="http://www.w3.org/2000/svg" xmlns:xlink="http://www.w3.org/1999/xlink" x="0px"
	 y="0px" viewBox="0 0 48 48" style="enable-background:new 0 0 48 48;" xml:space="preserve">
<style type="text/css">
	.st0{fill:#FFFFFF;}
	.st1{fill:none;}
	.st2{clip-path:url(#SVGID_2_);}
	.st3{clip-path:url(#SVGID_4_);}
</style>
<g>
	<g>
		<path class="st1" d="M0,0h48v48H0V0z"/>
		<g>
			<path class="st0" d="M6,26h4v-4H6V26z M6,34h4v-4H6V34z M10,42v-4H6C6,40.2,7.8,42,10,42z M6,18h4v-4H6V18z M30,42h4v-4h-4V42z
				 M38,6H18c-2.2,0-4,1.8-4,4v20c0,2.2,1.8,4,4,4h20c2.2,0,4-1.8,4-4V10C42,7.8,40.2,6,38,6z M38,30H18V10h20V30z M22,42h4v-4h-4
				V42z M14,42h4v-4h-4V42z"/>
		</g>
	</g>
	<g>
		<g>
			<polygon class="st0" points="31,26 28,26 28,18 25,18 25,16 29,14 31,14 			"/>
		</g>
	</g>
</g>
</svg>
