<?xml version="1.0" encoding="utf-8"?>
<!-- Generator: Adobe Illustrator 22.1.0, SVG Export Plug-In . SVG Version: 6.00 Build 0)  -->
<svg version="1.1" id="레이어_1" xmlns="http://www.w3.org/2000/svg" xmlns:xlink="http://www.w3.org/1999/xlink" x="0px"
	 y="0px" viewBox="0 0 48 48" style="enable-background:new 0 0 48 48;" xml:space="preserve">
<style type="text/css">
	.st0{fill:#FFFFFF;}
	.st1{fill:none;}
	.st2{clip-path:url(#SVGID_2_);}
	.st3{clip-path:url(#SVGID_4_);}
</style>
<g>
	<path class="st1" d="M0,0h48v48H0V0z"/>
	<g>
		<path class="st0" d="M42,6H6c-2.2,0-4,1.8-4,4v24c0,2.2,1.8,4,4,4h10v4h16v-4h10c2.2,0,4-1.8,4-4l0-24C46,7.8,44.2,6,42,6z M42,34
			H6V10h36V34z M38,16H16v4h22V16z M38,24H16v4h22V24z M14,16h-4v4h4V16z M14,24h-4v4h4V24z"/>
	</g>
</g>
</svg>
