<?xml version="1.0" encoding="utf-8"?>
<!-- Generator: Adobe Illustrator 22.1.0, SVG Export Plug-In . SVG Version: 6.00 Build 0)  -->
<svg version="1.1" id="레이어_1" xmlns="http://www.w3.org/2000/svg" xmlns:xlink="http://www.w3.org/1999/xlink" x="0px"
	 y="0px" viewBox="0 0 48 48" style="enable-background:new 0 0 48 48;" xml:space="preserve">
<style type="text/css">
	.st0{fill:#FFFFFF;}
	.st1{fill:none;}
	.st2{clip-path:url(#SVGID_2_);}
	.st3{clip-path:url(#SVGID_4_);}
</style>
<g>
	<g>
		<path class="st0" d="M31,28h-1.6l-0.6-0.5c2-2.3,3.1-5.2,3.1-8.5c0-7.2-5.8-13-13-13S6,11.8,6,19s5.8,13,13,13
			c3.2,0,6.2-1.2,8.5-3.1l0.5,0.6V31l10,10l3-3L31,28z M19,28c-5,0-9-4-9-9s4-9,9-9s9,4,9,9S24,28,19,28z"/>
	</g>
	<path class="st1" d="M0,0h48v48H0V0z"/>
	<g>
		<polygon class="st0" points="24,20 20,20 20,24 18,24 18,20 14,20 14,18 18,18 18,14 20,14 20,18 24,18 		"/>
	</g>
</g>
</svg>
