<?xml version="1.0" encoding="utf-8"?>
<!-- Generator: Adobe Illustrator 22.1.0, SVG Export Plug-In . SVG Version: 6.00 Build 0)  -->
<svg version="1.1" id="레이어_1" xmlns="http://www.w3.org/2000/svg" xmlns:xlink="http://www.w3.org/1999/xlink" x="0px"
	 y="0px" viewBox="0 0 48 48" style="enable-background:new 0 0 48 48;" xml:space="preserve">
<style type="text/css">
	.st0{fill:#FFFFFF;}
	.st1{fill:none;}
	.st2{clip-path:url(#SVGID_2_);}
	.st3{clip-path:url(#SVGID_4_);}
</style>
<g>
	<path class="st1" d="M48,48H0V0h48V48z"/>
	<g>
		<path class="st0" d="M46,38h-4V10h4V38z M38,38h-4V10h4V38z"/>
	</g>
	<g>
		<g>
			<circle class="st0" cx="16" cy="24" r="3"/>
		</g>
		<g>
			<path class="st0" d="M4,38h24c1.1,0,2-0.9,2-2V12c0-1.1-0.9-2-2-2H4c-1.1,0-2,0.9-2,2v24C2,37.1,2.9,38,4,38z M6.3,20.7l2-3.5
				C8.5,17,8.7,17,8.9,17l2.5,1c0.5-0.4,1.1-0.7,1.7-1l0.4-2.6c0-0.2,0.3-0.4,0.5-0.4h4c0.3,0,0.5,0.2,0.5,0.4l0.4,2.6
				c0.6,0.2,1.2,0.6,1.7,1l2.5-1c0.2-0.1,0.5,0,0.6,0.2l2,3.5c0.1,0.2,0.1,0.5-0.1,0.6L23.4,23c0,0.3,0.1,0.6,0.1,1
				c0,0.3,0,0.7-0.1,1l2.1,1.7c0.2,0.2,0.2,0.4,0.1,0.6l-2,3.5C23.5,31,23.3,31,23.1,31l-2.5-1c-0.5,0.4-1.1,0.7-1.7,1l-0.4,2.6
				c0,0.2-0.3,0.4-0.5,0.4h-4c-0.2,0-0.5-0.2-0.5-0.4l-0.4-2.6c-0.6-0.2-1.2-0.6-1.7-1L9,31c-0.2,0.1-0.5,0-0.6-0.2l-2-3.5
				c-0.1-0.2-0.1-0.5,0.1-0.6L8.6,25c-0.1-0.3-0.1-0.6-0.1-1c0-0.3,0-0.7,0.1-1l-2.1-1.7C6.3,21.2,6.2,20.9,6.3,20.7z"/>
		</g>
	</g>
</g>
</svg>
