<?xml version="1.0" encoding="utf-8"?>
<!-- Generator: Adobe Illustrator 22.1.0, SVG Export Plug-In . SVG Version: 6.00 Build 0)  -->
<svg version="1.1" id="레이어_1" xmlns="http://www.w3.org/2000/svg" xmlns:xlink="http://www.w3.org/1999/xlink" x="0px"
	 y="0px" viewBox="0 0 48 48" style="enable-background:new 0 0 48 48;" xml:space="preserve">
<style type="text/css">
	.st0{clip-path:url(#SVGID_2_);}
	.st1{opacity:0.1;}
	.st2{opacity:0.4;fill:none;stroke:#000000;stroke-width:0.1;stroke-miterlimit:10;}
	.st3{opacity:0.1;fill:none;stroke:#000000;stroke-width:0.1;stroke-miterlimit:10;}
	.st4{fill:none;stroke:#000000;stroke-width:0.2;stroke-miterlimit:10;}
	.st5{opacity:0.3;}
	.st6{opacity:0.1;fill:none;stroke:#000000;stroke-width:0.2;stroke-miterlimit:10;}
	.st7{opacity:0.6;}
	.st8{fill:#00B28E;}
	.st9{fill:none;stroke:#000000;stroke-miterlimit:10;}
	.st10{fill:none;}
	.st11{clip-path:url(#SVGID_4_);}
	.st12{clip-path:url(#SVGID_6_);}
	.st13{fill:none;stroke:#00B28E;stroke-miterlimit:10;}
	.st14{fill:none;stroke:#00B28E;stroke-miterlimit:10;stroke-dasharray:2.9849,4.9749;}
</style>
<g>
	<path class="st10" d="M0,0h48v48H0V0z"/>
	<rect x="30" y="35" width="4" height="3"/>
	<rect x="14" y="35" width="4" height="3"/>
	<g>
		<rect x="30" y="30" width="4" height="3"/>
		<rect x="14" y="30" width="4" height="3"/>
	</g>
	<rect x="6" y="38" width="36" height="4"/>
	<path d="M40,26c-3.3,0-6-2.7-6-6v-4c0-5.5-4.5-10-10-10s-10,4.5-10,10v4c0,3.3-2.7,6-6,6H6v4h2l0,0c5.5,0,10-4.5,10-10v-4
		c0-3.3,2.7-6,6-6s6,2.7,6,6v4c0,5.5,4.5,10,10,10h2v-4H40z"/>
	<polygon points="24,21 18,27 22,27 22,28 22,38 26,38 26,28 26,27 30,27 	"/>
</g>
</svg>
