<?xml version="1.0" encoding="utf-8"?>
<!-- Generator: Adobe Illustrator 22.1.0, SVG Export Plug-In . SVG Version: 6.00 Build 0)  -->
<svg version="1.1" id="레이어_1" xmlns="http://www.w3.org/2000/svg" xmlns:xlink="http://www.w3.org/1999/xlink" x="0px"
	 y="0px" viewBox="0 0 48 48" style="enable-background:new 0 0 48 48;" xml:space="preserve">
<style type="text/css">
	.st0{fill:#FFFFFF;}
	.st1{fill:none;}
	.st2{clip-path:url(#SVGID_2_);}
	.st3{clip-path:url(#SVGID_4_);}
</style>
<g>
	<path class="st1" d="M0,0h48v48H0V0z"/>
	<g>
		<path class="st1" d="M30,24c0,3.3-2.7,6-6,6s-6-2.7-6-6s2.7-6,6-6S30,20.7,30,24z"/>
		<g>
			<circle class="st0" cx="24" cy="24" r="6"/>
		</g>
		<g>
			<path class="st0" d="M14.2,26.2H9v-4h5.2c0.7-4,3.8-7.2,7.8-8V9.1C12.9,9.9,5.2,15.8,2,24c3.2,8.2,10.9,14.2,20,14.9v-5.1
				C18.2,33,15.1,30,14.2,26.2z"/>
		</g>
		<g>
			<path class="st0" d="M46,24C42.8,15.8,35.1,9.9,26,9.1v5.1c3.9,0.8,7,3.9,7.8,7.8H39v4h-5.2c-0.8,3.9-3.9,7-7.8,7.8v5.1
				C35.1,38.1,42.8,32.2,46,24z"/>
		</g>
	</g>
</g>
</svg>
