<?xml version="1.0" encoding="utf-8"?>
<!-- Generator: Adobe Illustrator 22.1.0, SVG Export Plug-In . SVG Version: 6.00 Build 0)  -->
<svg version="1.1" id="레이어_1" xmlns="http://www.w3.org/2000/svg" xmlns:xlink="http://www.w3.org/1999/xlink" x="0px"
	 y="0px" viewBox="0 0 48 48" style="enable-background:new 0 0 48 48;" xml:space="preserve">
<style type="text/css">
	.st0{fill:#FFFFFF;}
	.st1{fill:none;}
	.st2{clip-path:url(#SVGID_2_);}
	.st3{clip-path:url(#SVGID_4_);}
</style>
<g>
	<g>
		<path class="st1" d="M0,0h48v48H0V0z"/>
		<g>
			<path class="st0" d="M10,30H6v8c0,2.2,1.8,4,4,4h8v-4h-8V30z M10,10h8V6h-8c-2.2,0-4,1.8-4,4v8h4V10z M38,6h-8v4h8v8h4v-8
				C42,7.8,40.2,6,38,6z M38,38h-8v4h8c2.2,0,4-1.8,4-4v-8h-4V38z"/>
		</g>
	</g>
	<g>
		<g>
			<path class="st0" d="M25.2,25.2v9.3h9.3v-9.3H25.2z M13.5,34.5h9.3v-9.3h-9.3V34.5z M13.5,13.5v9.3h9.3v-9.3H13.5z M29.4,12
				l-6.6,6.6l6.6,6.6l6.6-6.6L29.4,12z"/>
		</g>
		<path class="st1" d="M10,10h28v28H10V10z"/>
	</g>
</g>
</svg>
