<?xml version="1.0" encoding="utf-8"?>
<!-- Generator: Adobe Illustrator 22.1.0, SVG Export Plug-In . SVG Version: 6.00 Build 0)  -->
<svg version="1.1" id="레이어_1" xmlns="http://www.w3.org/2000/svg" xmlns:xlink="http://www.w3.org/1999/xlink" x="0px"
	 y="0px" viewBox="0 0 48 48" style="enable-background:new 0 0 48 48;" xml:space="preserve">
<style type="text/css">
	.st0{clip-path:url(#SVGID_2_);}
	.st1{opacity:0.1;}
	.st2{opacity:0.4;fill:none;stroke:#000000;stroke-width:0.1;stroke-miterlimit:10;}
	.st3{opacity:0.1;fill:none;stroke:#000000;stroke-width:0.1;stroke-miterlimit:10;}
	.st4{fill:none;stroke:#000000;stroke-width:0.2;stroke-miterlimit:10;}
	.st5{opacity:0.3;}
	.st6{opacity:0.1;fill:none;stroke:#000000;stroke-width:0.2;stroke-miterlimit:10;}
	.st7{opacity:0.6;}
	.st8{fill:#00B28E;}
	.st9{fill:none;stroke:#000000;stroke-miterlimit:10;}
	.st10{fill:none;}
	.st11{clip-path:url(#SVGID_4_);}
	.st12{clip-path:url(#SVGID_6_);}
	.st13{fill:none;stroke:#00B28E;stroke-miterlimit:10;}
	.st14{fill:none;stroke:#00B28E;stroke-miterlimit:10;stroke-dasharray:2.9849,4.9749;}
</style>
<g>
	<g>
		<path d="M20.9,30H18v-2.9l6.7-6.7l2.9,2.9L20.9,30z M29.8,21.1l-1.4,1.4l-2.9-2.9l1.4-1.4c0.3-0.3,0.8-0.3,1.1,0l1.8,1.8
			C30.1,20.3,30.1,20.8,29.8,21.1z"/>
	</g>
	<g>
		<g>
			<path class="st10" d="M0,0h48v48H0V0z"/>
			<path d="M41.9,22C41,13.7,34.3,7,26,6.1V2h-4v4.1C13.7,7,7,13.7,6.1,22H2v4h4.1C7,34.3,13.7,41,22,41.9V46h4v-4.1
				C34.3,41,41,34.3,41.9,26H46v-4H41.9z M24,38c-7.7,0-14-6.3-14-14s6.3-14,14-14s14,6.3,14,14S31.7,38,24,38z"/>
		</g>
	</g>
</g>
</svg>
