<?xml version="1.0" encoding="utf-8"?>
<!-- Generator: Adobe Illustrator 22.1.0, SVG Export Plug-In . SVG Version: 6.00 Build 0)  -->
<svg version="1.1" id="레이어_1" xmlns="http://www.w3.org/2000/svg" xmlns:xlink="http://www.w3.org/1999/xlink" x="0px"
	 y="0px" viewBox="0 0 48 48" style="enable-background:new 0 0 48 48;" xml:space="preserve">
<style type="text/css">
	.st0{clip-path:url(#SVGID_2_);}
	.st1{opacity:0.1;}
	.st2{opacity:0.4;fill:none;stroke:#000000;stroke-width:0.1;stroke-miterlimit:10;}
	.st3{opacity:0.1;fill:none;stroke:#000000;stroke-width:0.1;stroke-miterlimit:10;}
	.st4{fill:none;stroke:#000000;stroke-width:0.2;stroke-miterlimit:10;}
	.st5{opacity:0.3;}
	.st6{opacity:0.1;fill:none;stroke:#000000;stroke-width:0.2;stroke-miterlimit:10;}
	.st7{opacity:0.6;}
	.st8{fill:#00B28E;}
	.st9{fill:none;stroke:#000000;stroke-miterlimit:10;}
	.st10{fill:none;}
	.st11{clip-path:url(#SVGID_4_);}
	.st12{clip-path:url(#SVGID_6_);}
	.st13{fill:none;stroke:#00B28E;stroke-miterlimit:10;}
	.st14{fill:none;stroke:#00B28E;stroke-miterlimit:10;stroke-dasharray:2.9849,4.9749;}
</style>
<g>
	<path class="st10" d="M0,0h48v48H0V0z M0,0h48v48H0V0z"/>
	<path d="M34,28h-1.6l-0.5-0.5c2-2.3,3.1-5.2,3.1-8.5c0-7.2-5.8-13-13-13S9,12,9,19H4l7.7,8l8.3-8h-7c0-5,4-9,9-9s9,4,9,9
		c0,5-4,9-9,9c-1.3,0-2.5-0.3-3.6-0.8l-3,3c1.9,1.1,4.2,1.8,6.6,1.8c3.2,0,6.2-1.2,8.4-3.1l0.5,0.5V31l10,10l3-3L34,28z"/>
</g>
</svg>
