<?xml version="1.0" encoding="utf-8"?>
<!-- Generator: Adobe Illustrator 22.1.0, SVG Export Plug-In . SVG Version: 6.00 Build 0)  -->
<svg version="1.1" id="레이어_1" xmlns="http://www.w3.org/2000/svg" xmlns:xlink="http://www.w3.org/1999/xlink" x="0px"
	 y="0px" viewBox="0 0 48 48" style="enable-background:new 0 0 48 48;" xml:space="preserve">
<style type="text/css">
	.st0{clip-path:url(#SVGID_2_);}
	.st1{opacity:0.1;}
	.st2{opacity:0.4;fill:none;stroke:#000000;stroke-width:0.1;stroke-miterlimit:10;}
	.st3{opacity:0.1;fill:none;stroke:#000000;stroke-width:0.1;stroke-miterlimit:10;}
	.st4{fill:none;stroke:#000000;stroke-width:0.2;stroke-miterlimit:10;}
	.st5{opacity:0.3;}
	.st6{opacity:0.1;fill:none;stroke:#000000;stroke-width:0.2;stroke-miterlimit:10;}
	.st7{opacity:0.6;}
	.st8{fill:#00B28E;}
	.st9{fill:none;stroke:#000000;stroke-miterlimit:10;}
	.st10{fill:none;}
	.st11{clip-path:url(#SVGID_4_);}
	.st12{clip-path:url(#SVGID_6_);}
	.st13{fill:none;stroke:#00B28E;stroke-miterlimit:10;}
	.st14{fill:none;stroke:#00B28E;stroke-miterlimit:10;stroke-dasharray:2.9849,4.9749;}
</style>
<g>
	<g>
		<defs>
			<rect id="SVGID_5_" width="48" height="48"/>
		</defs>
		<clipPath id="SVGID_2_">
			<use xlink:href="#SVGID_5_"  style="overflow:visible;"/>
		</clipPath>
		<path class="st0" d="M46,16c0,2.2-1.8,4-4,4c-0.4,0-0.7,0-1-0.1L33.9,27c0.1,0.3,0.1,0.7,0.1,1c0,2.2-1.8,4-4,4s-4-1.8-4-4
			c0-0.4,0-0.7,0.1-1L21,21.9C20.7,22,20.4,22,20,22s-0.7,0-1-0.1L9.9,31c0.1,0.3,0.1,0.7,0.1,1c0,2.2-1.8,4-4,4s-4-1.8-4-4
			s1.8-4,4-4c0.4,0,0.7,0,1,0.1l9.1-9.1C16,18.7,16,18.4,16,18c0-2.2,1.8-4,4-4s4,1.8,4,4c0,0.4,0,0.7-0.1,1l5.1,5.1
			c0.3-0.1,0.7-0.1,1-0.1s0.7,0,1,0.1l7.1-7.1C38,16.7,38,16.4,38,16c0-2.2,1.8-4,4-4S46,13.8,46,16z"/>
	</g>
</g>
</svg>
