<?xml version="1.0" encoding="utf-8"?>
<!-- Generator: Adobe Illustrator 22.1.0, SVG Export Plug-In . SVG Version: 6.00 Build 0)  -->
<svg version="1.1" id="레이어_1" xmlns="http://www.w3.org/2000/svg" xmlns:xlink="http://www.w3.org/1999/xlink" x="0px"
	 y="0px" viewBox="0 0 48 48" style="enable-background:new 0 0 48 48;" xml:space="preserve">
<style type="text/css">
	.st0{fill:#FFFFFF;}
	.st1{fill:none;}
	.st2{clip-path:url(#SVGID_2_);}
	.st3{clip-path:url(#SVGID_4_);}
</style>
<g>
	<path class="st1" d="M0,0h48v48H0V0z"/>
	<g>
		<g>
			<path class="st0" d="M24,32l14.7-11.5L42,18L24,4L6,18l3.3,2.5L24,32z M20,21v-1.5v-1c0-1.1,0.9-2,2-2h1h2V15h-5v-3h5h1
				c1.1,0,2,0.9,2,2v1v1.5v1c0,1.1-0.9,2-2,2h-1h-2V21h5v3h-5h-1c-1.1,0-2-0.9-2-2V21z"/>
		</g>
		<g>
			<polygon class="st0" points="24,37.1 9.2,25.6 6,28.1 24,42.1 42,28.1 38.7,25.6 			"/>
		</g>
	</g>
</g>
</svg>
