<?xml version="1.0" encoding="utf-8"?>
<!-- Generator: Adobe Illustrator 22.1.0, SVG Export Plug-In . SVG Version: 6.00 Build 0)  -->
<svg version="1.1" id="레이어_1" xmlns="http://www.w3.org/2000/svg" xmlns:xlink="http://www.w3.org/1999/xlink" x="0px"
	 y="0px" viewBox="0 0 48 48" style="enable-background:new 0 0 48 48;" xml:space="preserve">
<style type="text/css">
	.st0{clip-path:url(#SVGID_2_);}
	.st1{opacity:0.1;}
	.st2{opacity:0.4;fill:none;stroke:#000000;stroke-width:0.1;stroke-miterlimit:10;}
	.st3{opacity:0.1;fill:none;stroke:#000000;stroke-width:0.1;stroke-miterlimit:10;}
	.st4{fill:none;stroke:#000000;stroke-width:0.2;stroke-miterlimit:10;}
	.st5{opacity:0.3;}
	.st6{opacity:0.1;fill:none;stroke:#000000;stroke-width:0.2;stroke-miterlimit:10;}
	.st7{opacity:0.6;}
	.st8{fill:#00B28E;}
	.st9{fill:none;stroke:#000000;stroke-miterlimit:10;}
	.st10{fill:none;}
	.st11{clip-path:url(#SVGID_4_);}
	.st12{clip-path:url(#SVGID_6_);}
	.st13{fill:none;stroke:#00B28E;stroke-miterlimit:10;}
	.st14{fill:none;stroke:#00B28E;stroke-miterlimit:10;stroke-dasharray:2.9849,4.9749;}
</style>
<g>
	<path class="st10" d="M0,0h48v48H0V0z"/>
	<path d="M42,6H6c-2.2,0-4,1.8-4,4v24c0,2.2,1.8,4,4,4h10v4h16v-4h10c2.2,0,4-1.8,4-4l0-24C46,7.8,44.2,6,42,6z M42,34H6V10h36V34z
		 M32,20v4h-6v6h-4v-6h-6v-4h6v-6h4v6H32z"/>
</g>
</svg>
