<?xml version="1.0" encoding="utf-8"?>
<!-- Generator: Adobe Illustrator 22.1.0, SVG Export Plug-In . SVG Version: 6.00 Build 0)  -->
<svg version="1.1" id="레이어_1" xmlns="http://www.w3.org/2000/svg" xmlns:xlink="http://www.w3.org/1999/xlink" x="0px"
	 y="0px" viewBox="0 0 48 48" style="enable-background:new 0 0 48 48;" xml:space="preserve">
<style type="text/css">
	.st0{clip-path:url(#SVGID_2_);}
	.st1{opacity:0.1;}
	.st2{opacity:0.4;fill:none;stroke:#000000;stroke-width:0.1;stroke-miterlimit:10;}
	.st3{opacity:0.1;fill:none;stroke:#000000;stroke-width:0.1;stroke-miterlimit:10;}
	.st4{fill:none;stroke:#000000;stroke-width:0.2;stroke-miterlimit:10;}
	.st5{opacity:0.3;}
	.st6{opacity:0.1;fill:none;stroke:#000000;stroke-width:0.2;stroke-miterlimit:10;}
	.st7{opacity:0.6;}
	.st8{fill:#00B28E;}
	.st9{fill:none;stroke:#000000;stroke-miterlimit:10;}
	.st10{fill:none;}
	.st11{clip-path:url(#SVGID_4_);}
	.st12{clip-path:url(#SVGID_6_);}
	.st13{fill:none;stroke:#00B28E;stroke-miterlimit:10;}
	.st14{fill:none;stroke:#00B28E;stroke-miterlimit:10;stroke-dasharray:2.9849,4.9749;}
</style>
<g>
	<g>
		<rect x="12" y="14" width="4" height="4"/>
		<rect x="12" y="22" width="4" height="4"/>
		<rect x="12" y="30" width="4" height="4"/>
	</g>
	<g>
		<g>
			<path class="st10" d="M0,0h48v48H0V0z"/>
		</g>
	</g>
	<g>
		<rect x="28" y="18" class="st10" width="4" height="4"/>
		<polygon class="st10" points="8,38 24,38 24,34 20,34 20,30 24,30 24,26 20,26 20,22 24,22 24,18 20,18 20,14 24,14 24,10 8,10 		
			"/>
		<rect x="36" y="18" class="st10" width="4" height="4"/>
	</g>
	<g>
		<path d="M39,26.5c1.8,0,3.5,0.4,5,1V14H28V6H4v36h22.9c-0.2-1-0.4-2-0.4-3C26.5,32.1,32.1,26.5,39,26.5z M36,18h4v4h-4V18z M28,18
			h4v4h-4V18z M24,14h-4v4h4v4h-4v4h4v4h-4v4h4v4H8V10h16V14z"/>
	</g>
	<g>
		<g>
			<path d="M45.9,39.9c0-0.3,0.1-0.6,0.1-0.9s0-0.6-0.1-0.9l2-1.5c0.2-0.1,0.2-0.4,0.1-0.6l-1.8-3.1c-0.1-0.2-0.4-0.3-0.6-0.2
				l-2.3,0.9c-0.5-0.4-1-0.7-1.6-0.9l-0.4-2.4c0-0.2-0.2-0.4-0.4-0.4h-3.7c-0.2,0-0.4,0.2-0.5,0.4l-0.4,2.4
				c-0.6,0.2-1.1,0.5-1.6,0.9l-2.3-0.9c-0.2-0.1-0.4,0-0.6,0.2L30.1,36c-0.1,0.2-0.1,0.4,0.1,0.6l2,1.5c0,0.3-0.1,0.6-0.1,0.9
				s0,0.6,0.1,0.9l-2,1.5C30,41.5,30,41.8,30.1,42l1.8,3.1c0.1,0.2,0.4,0.3,0.6,0.2l2.3-0.9c0.5,0.4,1,0.7,1.6,0.9l0.4,2.4
				c0,0.2,0.2,0.4,0.5,0.4h3.7c0.2,0,0.4-0.2,0.5-0.4l0.4-2.4c0.6-0.2,1.1-0.5,1.6-0.9l2.3,0.9c0.2,0.1,0.4,0,0.6-0.2l1.8-3.1
				c0.1-0.2,0.1-0.4-0.1-0.6L45.9,39.9z M39,41.7c-1.5,0-2.8-1.2-2.8-2.7s1.2-2.7,2.8-2.7c1.5,0,2.8,1.2,2.8,2.7S40.5,41.7,39,41.7z
				"/>
		</g>
	</g>
</g>
</svg>
