<?xml version="1.0" encoding="utf-8"?>
<!-- Generator: Adobe Illustrator 22.1.0, SVG Export Plug-In . SVG Version: 6.00 Build 0)  -->
<svg version="1.1" id="레이어_1" xmlns="http://www.w3.org/2000/svg" xmlns:xlink="http://www.w3.org/1999/xlink" x="0px"
	 y="0px" viewBox="0 0 48 48" style="enable-background:new 0 0 48 48;" xml:space="preserve">
<style type="text/css">
	.st0{clip-path:url(#SVGID_2_);}
	.st1{opacity:0.1;}
	.st2{opacity:0.4;fill:none;stroke:#000000;stroke-width:0.1;stroke-miterlimit:10;}
	.st3{opacity:0.1;fill:none;stroke:#000000;stroke-width:0.1;stroke-miterlimit:10;}
	.st4{fill:none;stroke:#000000;stroke-width:0.2;stroke-miterlimit:10;}
	.st5{opacity:0.3;}
	.st6{opacity:0.1;fill:none;stroke:#000000;stroke-width:0.2;stroke-miterlimit:10;}
	.st7{opacity:0.6;}
	.st8{fill:#00B28E;}
	.st9{fill:none;stroke:#000000;stroke-miterlimit:10;}
	.st10{fill:none;}
	.st11{clip-path:url(#SVGID_4_);}
	.st12{clip-path:url(#SVGID_6_);}
	.st13{fill:none;stroke:#00B28E;stroke-miterlimit:10;}
	.st14{fill:none;stroke:#00B28E;stroke-miterlimit:10;stroke-dasharray:2.9849,4.9749;}
</style>
<g>
	<g>
		<g>
			<path d="M45.7,39c0-0.3,0.1-0.6,0.1-1s0-0.7-0.1-1l2.1-1.7c0.2-0.2,0.2-0.4,0.1-0.6l-2-3.5C45.8,31,45.5,31,45.3,31l-2.5,1
				c-0.5-0.4-1.1-0.7-1.7-1l-0.4-2.6c0-0.2-0.2-0.4-0.5-0.4h-4c-0.2,0-0.5,0.2-0.5,0.4l-0.4,2.6c-0.6,0.3-1.2,0.6-1.7,1l-2.5-1
				c-0.2-0.1-0.5,0-0.6,0.2l-2,3.5c-0.1,0.2-0.1,0.5,0.1,0.6l2.1,1.7c0,0.3-0.1,0.6-0.1,1s0,0.7,0.1,1l-2.1,1.7
				c-0.2,0.2-0.2,0.4-0.1,0.6l2,3.5C30.7,45,31,45,31.2,45l2.5-1c0.5,0.4,1.1,0.7,1.7,1l0.4,2.6c0,0.2,0.2,0.4,0.5,0.4h4
				c0.2,0,0.5-0.2,0.5-0.4l0.4-2.6c0.6-0.3,1.2-0.6,1.7-1l2.5,1c0.2,0.1,0.5,0,0.6-0.2l2-3.5c0.1-0.2,0.1-0.5-0.1-0.6L45.7,39z
				 M38.3,41c-1.7,0-3-1.3-3-3s1.3-3,3-3s3,1.3,3,3S39.9,41,38.3,41z"/>
		</g>
	</g>
	<g>
		<path class="st10" d="M0,0h48v48H0V0z"/>
		<path d="M4,36h22v-8H4V36z M8,30h4v4H8V30z M4,4v8h40V4H4z M12,10H8V6h4V10z M4,24h40v-8H4V24z M8,18h4v4H8V18z"/>
	</g>
</g>
</svg>
